<svg data-v-7d32def8="" version="1.0" xmlns="http://www.w3.org/2000/svg" preserveAspectRatio="xMidYMid meet" color-interpolation-filters="sRGB" xmlns:xlink="http://www.w3.org/1999/xlink" viewBox="0 0 370 260" width="100%" height="100%"><rect x="0" y="0" width="100%" height="100%" fill="#1cb0f6" rx="6" ry="6"></rect><rect x="0" y="0" width="100%" height="100%" fill="url(#watermark)" rx="6" ry="6" fill-opacity=".03"></rect><filter id="colorMatrixDefault"><feColorMatrix in="SourceGraphic" type="matrix" values=" 1 0 0 0 0 0 1 0 0 0 0 0 1 0 0 0 0 0 1 0"></feColorMatrix></filter><filter id="colorMatrixWhite"><feColorMatrix in="SourceGraphic" type="matrix" values="0 0 0 0 0.99609375  0 0 0 0 0.99609375  0 0 0 0 0.99609375  0 0 0 1 0"></feColorMatrix></filter><filter id="colorMatrixRed"><feColorMatrix in="SourceGraphic" type="matrix" values="0 0 0 0 0.765625  0 0 0 0 0.109375  0 0 0 0 0.09765625  0 0 0 1 0"></feColorMatrix></filter><filter id="colorMatrixGold"><feColorMatrix in="SourceGraphic" type="matrix" values="0 0 0 0 0.734375  0 0 0 0 0.609375  0 0 0 0 0.375  0 0 0 1 0"></feColorMatrix></filter><filter id="colorMatrix1614660628000"><feColorMatrix in="SourceGraphic" type="matrix" values=""></feColorMatrix></filter><filter id="2"><feColorMatrix in="SourceGraphic" type="matrix" values=""></feColorMatrix></filter><filter id="3"><feColorMatrix in="SourceGraphic" type="matrix" values=""></feColorMatrix></filter><defs><clipPath id="textClip"><rect x="0" y="40" width="200" height="30"></rect><rect x="0" y="80" width="200" height="30"></rect><rect x="0" y="90" width="200" height="90"></rect></clipPath><filter id="logoIconColor" filterUnits="userSpaceOnUse" x="0" y="0" width="200" height="120"></filter><filter id="logoIconBackgroundColor" filterUnits="userSpaceOnUse" x="0" y="0" width="200" height="120"></filter></defs><g transform="translate(0,0)" class="logo-group"><g transform="translate(145.0040404040404,68.35999965667725)" class="logo-icon"><svg version="1.0" xmlns="http://www.w3.org/2000/svg" preserveAspectRatio="xMidYMid meet" color-interpolation-filters="sRGB" xmlns:xlink="http://www.w3.org/1999/xlink" width="79.99191919191918" height="80" filter="url(#colorMatrixWhite)"><svg xmlns="http://www.w3.org/2000/svg" viewBox="0 0 98.99 99"><title>资源 57</title><g id="bdcb4e02-1dd1-4ddd-abb8-b83266d48b83" data-name="图层 2"><g id="a1e1be96-e8e2-480a-9a5f-6a4ebd72098e" data-name="图层 1"><path d="M86.25,57.6v-13L64.7,40.25l-3.94-8.14L55.62,33.3l0,0L38.28,37l-13-5.86h0L20.51,29A21.29,21.29,0,0,0,27.1,56.54L16.21,79.41A44.55,44.55,0,0,1,4.79,51.48h9.54V46.13H4.87A44.56,44.56,0,0,1,15,21L39.1,31.86v0h0l.08,0v-.06l21-4.36-1.75-5L50.62,24l-5.26-9.44-5.2,2.12L45,25.1l-6.4,1.26-31.43-14L3.65,15.91,10.51,19a49.5,49.5,0,0,0,7.16,68.4l.11-.23,0,0,1.92-4L31.33,58.83l2.13-4.46A16.34,16.34,0,0,1,23.13,39.21a17.09,17.09,0,0,1,.29-3L37.68,42.6l0-.1,0,.06L58.16,38.2l3.4,6.56,19.36,3.88v6.47l-35.38,7L37.63,80.72h5.14l5.81-13.65,37.67-7.49Z" fill="#f7931e"></path><path d="M49.5,0a49.2,49.2,0,0,0-30,10.1l5.24,2.08A44.76,44.76,0,1,1,49.5,94.25V99a49.5,49.5,0,0,0,0-99Z" fill="#f7931e"></path></g></g></svg></svg></g><g transform="translate(156.7549991607666,158.35999965667725)" class="logo-text"><path d="M27.87 9.03L27.87 21.72Q27.87 22.86 27.09 23.64Q26.31 24.42 25.17 24.42L25.17 24.42L11.16 24.42L11.16 9.60L25.53 9.60L25.53 9.03L27.87 9.03ZM20.55 22.05L25.17 22.05Q25.32 22.05 25.43 21.96Q25.53 21.87 25.53 21.72L25.53 21.72L25.53 17.94L20.55 17.94L20.55 22.05ZM25.53 15.57L25.53 11.94L20.55 11.94L20.55 15.57L25.53 15.57ZM18.18 11.94L13.53 11.94L13.53 15.57L18.18 15.57L18.18 11.94ZM13.53 17.94L13.53 22.05L18.18 22.05L18.18 17.94L13.53 17.94ZM13.62 8.04L13.62 5.73L10.68 5.73L10.68 3.39L13.62 3.39L13.62 1.14L15.99 1.14L15.99 3.39L18.69 3.39L18.69 5.73L15.99 5.73L15.99 8.04L13.62 8.04ZM23.07 8.04L23.07 5.73L20.40 5.73L20.40 3.39L23.07 3.39L23.07 1.14L25.44 1.14L25.44 3.39L28.38 3.39L28.38 5.73L25.44 5.73L25.44 8.04L23.07 8.04ZM10.05 3.81L10.05 19.68Q10.05 20.82 9.27 21.60Q8.49 22.38 7.35 22.38L7.35 22.38L1.89 22.38L1.89 4.32L7.71 4.32L7.71 3.81L10.05 3.81ZM4.26 6.69L4.26 20.01L7.35 20.01Q7.50 20.01 7.60 19.92Q7.71 19.83 7.71 19.68L7.71 19.68L7.71 6.69L4.26 6.69ZM57.87 9.03L57.87 21.72Q57.87 22.86 57.09 23.64Q56.31 24.42 55.17 24.42L55.17 24.42L41.16 24.42L41.16 9.60L55.53 9.60L55.53 9.03L57.87 9.03ZM50.55 22.05L55.17 22.05Q55.32 22.05 55.42 21.96Q55.53 21.87 55.53 21.72L55.53 21.72L55.53 17.94L50.55 17.94L50.55 22.05ZM55.53 15.57L55.53 11.94L50.55 11.94L50.55 15.57L55.53 15.57ZM48.18 11.94L43.53 11.94L43.53 15.57L48.18 15.57L48.18 11.94ZM43.53 17.94L43.53 22.05L48.18 22.05L48.18 17.94L43.53 17.94ZM43.62 8.04L43.62 5.73L40.68 5.73L40.68 3.39L43.62 3.39L43.62 1.14L45.99 1.14L45.99 3.39L48.69 3.39L48.69 5.73L45.99 5.73L45.99 8.04L43.62 8.04ZM53.07 8.04L53.07 5.73L50.40 5.73L50.40 3.39L53.07 3.39L53.07 1.14L55.44 1.14L55.44 3.39L58.38 3.39L58.38 5.73L55.44 5.73L55.44 8.04L53.07 8.04ZM40.05 3.81L40.05 19.68Q40.05 20.82 39.27 21.60Q38.49 22.38 37.35 22.38L37.35 22.38L31.89 22.38L31.89 4.32L37.71 4.32L37.71 3.81L40.05 3.81ZM34.26 6.69L34.26 20.01L37.35 20.01Q37.50 20.01 37.60 19.92Q37.71 19.83 37.71 19.68L37.71 19.68L37.71 6.69L34.26 6.69Z" fill="#ffffff"></path></g><g transform="translate(185,191.64000034332275)" class="logo-slug"><path d="" fill="#ffffff"></path></g></g></svg>